<svg id="Capa_1" enable-background="new 0 0 512 512" height="512" viewBox="0 0 512 512" width="512" xmlns="http://www.w3.org/2000/svg"><g><path d="m255.99 421.75h241c8.284 0 15 6.716 15 15v60.25c0 8.284-6.716 15-15 15h-241c-8.284 0-15-6.716-15-15v-60.25c0-8.284 6.715-15 15-15z"/><g><path d="m13.206 387.822 159.895-159.895 63.816 63.816-159.894 159.895c-8.797 8.797-20.353 13.196-31.908 13.196s-23.111-4.398-31.908-13.196c-17.595-17.594-17.595-46.222-.001-63.816z"/><path d="m204.182 110.037h150.5v150.75h-150.5z" transform="matrix(.707 -.707 .707 .707 -49.263 251.895)"/><path d="m439.061 196.019 21.39 21.39c5.858 5.858 5.858 15.355 0 21.213l-127.81 127.81c-2.929 2.929-6.768 4.394-10.606 4.394s-7.678-1.464-10.606-4.394l-21.39-21.39c-5.858-5.858-5.858-15.355 0-21.213l127.809-127.809c5.858-5.859 15.355-5.859 21.213-.001z"/><path d="m141.016 174.806c-5.858 5.858-15.355 5.858-21.213 0l-21.39-21.39c-5.858-5.858-5.858-15.355 0-21.213l127.809-127.81c5.856-5.857 15.354-5.858 21.213 0l21.39 21.39c5.858 5.858 5.858 15.355 0 21.213z"/></g></g></svg>